<svg width="24" height="24" viewBox="0 0 24 24" fill="none" xmlns="http://www.w3.org/2000/svg">
<path d="M6.5 13.5H17.5V12.5H6.5V13.5ZM6.5 10.5H17.5V9.5H6.5V10.5ZM6.5 7.5H17.5V6.5H6.5V7.5ZM21 20.077L17.923 17H4.616C4.15534 17 3.77067 16.846 3.462 16.538C3.15334 16.23 2.99934 15.8457 3 15.385V4.615C3 4.155 3.15434 3.77067 3.463 3.462C3.77167 3.15334 4.15567 2.99934 4.615 3H19.385C19.845 3 20.229 3.154 20.537 3.462C20.845 3.77 20.9993 4.15434 21 4.615V20.077ZM4.616 16H18.35L20 17.644V4.616C20 4.462 19.936 4.32067 19.808 4.192C19.68 4.06334 19.539 3.99934 19.385 4H4.615C4.46167 4 4.32067 4.064 4.192 4.192C4.06334 4.32 3.99934 4.461 4 4.615V15.385C4 15.5383 4.064 15.6793 4.192 15.808C4.32 15.9367 4.461 16.0007 4.615 16" fill="#9148FF"/>
</svg>
