<svg width="251" height="38" viewBox="0 0 251 38" fill="none" xmlns="http://www.w3.org/2000/svg">
<path d="M8.31181 31.736C10.5518 31.992 12.2958 31.832 13.5438 31.256C15.2078 30.456 16.8718 29.352 18.5358 27.944C20.2318 26.536 21.6718 24.984 22.8558 23.288C25.5118 19.48 26.2158 16.008 24.9678 12.872C23.9118 10.152 20.9998 8.216 16.2318 7.064C13.7038 6.456 10.5678 6.072 6.82381 5.912C6.72781 8.888 6.95181 13.608 7.49581 20.072C7.94381 25.512 8.21581 29.4 8.31181 31.736ZM3.41581 1.016C9.30381 1.112 13.9598 1.576 17.3838 2.408C23.7518 3.944 27.7838 6.856 29.4798 11.144C30.1838 12.84 30.4718 14.6 30.3438 16.424C30.2158 18.248 29.8638 19.928 29.2878 21.464C28.6798 22.968 27.8478 24.488 26.7918 26.024C25.3518 28.104 23.6398 29.976 21.6558 31.64C19.6398 33.304 17.6078 34.616 15.5598 35.576C13.5758 36.536 11.1118 36.856 8.16781 36.536C7.71981 37.432 6.99981 37.88 6.00781 37.88C5.39981 37.88 4.85581 37.672 4.37581 37.256C3.92781 36.84 3.67181 36.328 3.60781 35.72L2.83981 35.48C2.19981 35.32 1.70381 34.968 1.35181 34.424C0.999813 33.848 0.919813 33.24 1.11181 32.6C1.23981 32.024 1.52781 31.576 1.97581 31.256C2.42381 30.904 2.91981 30.744 3.46381 30.776C3.39981 29.336 3.14381 25.896 2.69581 20.456C2.15181 14.056 1.92781 9.032 2.02381 5.384C1.31981 4.904 0.967813 4.232 0.967813 3.368C0.967813 2.696 1.20781 2.136 1.68781 1.688C2.16781 1.24 2.74381 1.016 3.41581 1.016ZM54.8913 11.096H54.9873C55.6273 11.256 56.1073 11.624 56.4273 12.2C56.7793 12.744 56.8913 13.352 56.7633 14.024C56.7313 14.088 56.6993 14.216 56.6673 14.408C56.6033 14.888 56.5713 15.144 56.5713 15.176C56.4433 16.072 56.1873 16.824 55.8033 17.432C54.4593 19.448 51.3553 21.16 46.4913 22.568C44.7953 23.08 42.1233 23.736 38.4753 24.536C38.5393 26.04 38.9393 27.336 39.6753 28.424C40.4113 29.48 41.4673 30.216 42.8433 30.632C43.9953 30.984 44.7793 31.128 45.1953 31.064C45.4513 31.032 46.1873 30.744 47.4033 30.2C48.7793 29.56 49.5953 29.144 49.8513 28.952C50.0113 28.824 50.2673 28.584 50.6193 28.232L52.3473 26.696C52.8273 26.248 53.3873 26.04 54.0273 26.072C54.6993 26.104 55.2593 26.376 55.7073 26.888C56.1553 27.368 56.3633 27.944 56.3313 28.616C56.2993 29.256 56.0273 29.8 55.5153 30.248L53.9313 31.736C53.4513 32.216 53.0673 32.552 52.7793 32.744C52.2673 33.128 51.1473 33.72 49.4193 34.52C47.7233 35.288 46.5233 35.72 45.8193 35.816C44.7313 35.976 43.2913 35.784 41.4993 35.24C40.0593 34.824 38.8113 34.2 37.7553 33.368C36.7313 32.536 35.9153 31.608 35.3073 30.584C34.7313 29.56 34.2993 28.44 34.0113 27.224C33.7553 26.008 33.6593 24.808 33.7233 23.624C33.7873 22.408 33.9633 21.208 34.2513 20.024C34.7633 18.04 35.5633 16.184 36.6513 14.456C37.7713 12.728 39.2433 11.256 41.0673 10.04C42.8913 8.792 44.8593 8.12 46.9713 8.024C47.5153 7.992 48.0433 8.008 48.5553 8.072C49.0673 8.136 49.5793 8.248 50.0913 8.408C50.6353 8.568 51.0513 8.712 51.3393 8.84C51.6593 8.936 52.0753 9.112 52.5873 9.368C53.1313 9.592 53.4673 9.736 53.5953 9.8C54.2033 10.056 54.6353 10.488 54.8913 11.096ZM51.7713 14.216L50.5713 13.688L49.5633 13.304C49.3713 13.208 49.1153 13.112 48.7953 13.016C48.5073 12.92 48.2353 12.872 47.9793 12.872C47.7233 12.84 47.4513 12.824 47.1633 12.824C45.5953 12.888 44.1073 13.528 42.6993 14.744C41.3233 15.96 40.2513 17.512 39.4833 19.4C41.7233 18.92 43.6113 18.44 45.1473 17.96C48.8913 16.872 51.0993 15.8 51.7713 14.744L51.8193 14.456C51.8513 14.392 51.8673 14.328 51.8673 14.264C51.8353 14.264 51.8033 14.248 51.7713 14.216ZM80.8008 12.632C80.4808 14.2 79.2968 17.912 77.2488 23.768C76.3208 26.424 75.5208 28.6 74.8488 30.296C74.4648 31.256 74.1288 32.024 73.8408 32.6C73.6808 32.952 73.5368 33.24 73.4088 33.464C73.0888 33.976 72.7048 34.36 72.2568 34.616C71.3928 35.064 70.4648 35.208 69.4728 35.048C68.4808 34.92 67.6488 34.552 66.9768 33.944C66.7528 33.72 66.5288 33.416 66.3048 33.032C66.1768 32.84 66.0488 32.584 65.9208 32.264C65.6648 31.752 65.3768 31.064 65.0568 30.2C64.4488 28.728 63.7288 26.84 62.8968 24.536C61.1048 19.512 60.0488 16.376 59.7288 15.128C59.6008 14.488 59.6968 13.88 60.0168 13.304C60.3688 12.728 60.8648 12.376 61.5048 12.248C62.1448 12.088 62.7528 12.184 63.3288 12.536C63.9048 12.856 64.2728 13.336 64.4328 13.976C64.6888 15.064 65.6808 18.04 67.4088 22.904C68.2408 25.176 68.9448 27.016 69.5208 28.424L69.9528 29.576L70.3848 28.52C71.0888 26.824 71.8728 24.712 72.7368 22.184C74.6888 16.52 75.8088 13.016 76.0968 11.672C76.2248 11.032 76.5608 10.536 77.1048 10.184C77.6808 9.8 78.2888 9.672 78.9288 9.8C79.5688 9.928 80.0648 10.28 80.4168 10.856C80.8008 11.4 80.9288 11.992 80.8008 12.632ZM101.488 16.28C101.008 15.896 100.384 15.352 99.6157 14.648C99.1677 14.264 98.8957 14.024 98.7997 13.928C98.5117 13.768 97.6957 13.656 96.3517 13.592C94.5277 13.496 92.9437 14.152 91.5997 15.56C90.2877 16.936 89.4397 18.792 89.0557 21.128C88.6717 23.432 88.8797 25.48 89.6797 27.272C90.4797 29.032 91.6957 30.152 93.3277 30.632C94.4157 30.952 95.3917 31.064 96.2557 30.968C97.1517 30.872 98.0637 30.52 98.9917 29.912C99.2477 29.752 99.4557 29.592 99.6157 29.432C99.8077 29.24 99.9997 28.984 100.192 28.664C100.384 28.344 100.528 28.088 100.624 27.896C100.72 27.672 100.896 27.288 101.152 26.744L101.68 25.4C101.968 24.824 102.416 24.424 103.024 24.2C103.664 23.944 104.272 23.96 104.848 24.248C105.456 24.504 105.872 24.952 106.096 25.592C106.352 26.2 106.352 26.808 106.096 27.416C106.032 27.512 105.872 27.88 105.616 28.52C105.36 29.128 105.136 29.608 104.944 29.96C104.784 30.28 104.528 30.728 104.176 31.304C103.856 31.848 103.472 32.344 103.024 32.792C102.608 33.208 102.128 33.592 101.584 33.944C98.6717 35.832 95.4717 36.264 91.9837 35.24C90.6717 34.856 89.5037 34.264 88.4797 33.464C87.4877 32.664 86.6877 31.768 86.0797 30.776C85.5037 29.752 85.0237 28.648 84.6397 27.464C84.2877 26.248 84.1117 25.048 84.1117 23.864C84.1117 22.68 84.1917 21.512 84.3517 20.36C84.5757 18.856 85.0077 17.432 85.6477 16.088C86.2877 14.712 87.1037 13.448 88.0957 12.296C89.0877 11.144 90.3197 10.248 91.7917 9.608C93.2637 8.968 94.8797 8.696 96.6397 8.792C98.7837 8.92 100.352 9.272 101.344 9.848C101.728 10.104 102.224 10.52 102.832 11.096L104.56 12.632C105.072 13.048 105.36 13.592 105.424 14.264C105.488 14.904 105.296 15.48 104.848 15.992C104.432 16.504 103.888 16.792 103.216 16.856C102.576 16.92 102 16.728 101.488 16.28ZM116.189 16.52C114.653 18.088 113.965 20.2 114.125 22.856C114.253 25 114.909 26.76 116.093 28.136C117.277 29.512 118.781 30.184 120.605 30.152C123.037 30.152 124.877 28.936 126.125 26.504C126.733 25.384 127.085 24.168 127.181 22.856C127.309 21.512 127.165 20.296 126.749 19.208C125.949 17.096 125.053 15.768 124.061 15.224C123.773 15.192 123.133 15.08 122.141 14.888C121.021 14.952 119.421 15.432 117.341 16.328C116.957 16.52 116.573 16.584 116.189 16.52ZM122.525 10.088C123.165 10.088 123.789 10.152 124.397 10.28C127.373 10.952 129.629 13.352 131.165 17.48C131.837 19.336 132.093 21.24 131.933 23.192C131.773 25.144 131.245 26.984 130.349 28.712C129.389 30.568 128.077 32.056 126.413 33.176C124.717 34.328 122.781 34.92 120.605 34.952C118.877 34.952 117.293 34.616 115.853 33.944C114.445 33.24 113.293 32.312 112.397 31.16C111.501 30.008 110.797 28.744 110.285 27.368C109.773 25.992 109.469 24.584 109.373 23.144C109.309 21.704 109.453 20.28 109.805 18.872C110.157 17.432 110.717 16.088 111.485 14.84C112.253 13.56 113.309 12.488 114.653 11.624C116.029 10.728 117.613 10.168 119.405 9.944C120.269 9.816 121.309 9.864 122.525 10.088ZM136.452 18.248C136.484 15.72 136.484 13.72 136.452 12.248C136.452 11.576 136.676 11 137.124 10.52C137.604 10.04 138.164 9.8 138.804 9.8C139.476 9.8 140.052 10.04 140.532 10.52C141.012 10.968 141.252 11.512 141.252 12.152V12.536C141.86 11.96 142.388 11.544 142.836 11.288C143.86 10.68 145.06 10.248 146.436 9.992C147.812 9.736 149.14 9.736 150.42 9.992C151.956 10.248 153.284 10.888 154.404 11.912C155.524 12.936 156.164 14.328 156.324 16.088C156.452 17.656 156.548 19.352 156.612 21.176C156.676 22.968 156.724 24.984 156.756 27.224C156.788 29.432 156.82 31.128 156.852 32.312C156.884 32.984 156.66 33.56 156.18 34.04C155.732 34.52 155.172 34.776 154.5 34.808C153.86 34.84 153.3 34.632 152.82 34.184C152.34 33.704 152.084 33.144 152.052 32.504C152.02 31.288 151.988 29.608 151.956 27.464C151.924 25.288 151.876 23.32 151.812 21.56C151.78 19.768 151.684 18.072 151.524 16.472C151.46 15.512 150.804 14.92 149.556 14.696C148.852 14.568 148.1 14.584 147.3 14.744C146.5 14.872 145.812 15.096 145.236 15.416C144.82 15.672 144.036 16.472 142.884 17.816L141.252 19.784C141.22 25.384 141.3 29.72 141.492 32.792C141.524 33.432 141.316 34.008 140.868 34.52C140.452 35.032 139.908 35.304 139.236 35.336C138.596 35.368 138.02 35.176 137.508 34.76C136.996 34.312 136.724 33.752 136.692 33.08C136.5 30.008 136.42 25.608 136.452 19.88C136.356 19.88 136.324 19.608 136.356 19.064L136.452 18.248ZM161.296 18.248C161.328 15.72 161.328 13.72 161.296 12.248C161.296 11.576 161.52 11 161.968 10.52C162.448 10.04 163.008 9.8 163.648 9.8C164.32 9.8 164.896 10.04 165.376 10.52C165.856 10.968 166.096 11.512 166.096 12.152V12.536C166.704 11.96 167.232 11.544 167.68 11.288C168.704 10.68 169.904 10.248 171.28 9.992C172.656 9.736 173.984 9.736 175.264 9.992C176.8 10.248 178.128 10.888 179.248 11.912C180.368 12.936 181.008 14.328 181.168 16.088C181.296 17.656 181.392 19.352 181.456 21.176C181.52 22.968 181.568 24.984 181.6 27.224C181.632 29.432 181.664 31.128 181.696 32.312C181.728 32.984 181.504 33.56 181.024 34.04C180.576 34.52 180.016 34.776 179.344 34.808C178.704 34.84 178.144 34.632 177.664 34.184C177.184 33.704 176.928 33.144 176.896 32.504C176.864 31.288 176.832 29.608 176.8 27.464C176.768 25.288 176.72 23.32 176.656 21.56C176.624 19.768 176.528 18.072 176.368 16.472C176.304 15.512 175.648 14.92 174.4 14.696C173.696 14.568 172.944 14.584 172.144 14.744C171.344 14.872 170.656 15.096 170.08 15.416C169.664 15.672 168.88 16.472 167.728 17.816L166.096 19.784C166.064 25.384 166.144 29.72 166.336 32.792C166.368 33.432 166.16 34.008 165.712 34.52C165.296 35.032 164.752 35.304 164.08 35.336C163.44 35.368 162.864 35.176 162.352 34.76C161.84 34.312 161.568 33.752 161.536 33.08C161.344 30.008 161.264 25.608 161.296 19.88C161.2 19.88 161.168 19.608 161.2 19.064L161.296 18.248ZM206.204 11.096H206.3C206.94 11.256 207.42 11.624 207.74 12.2C208.092 12.744 208.204 13.352 208.076 14.024C208.044 14.088 208.012 14.216 207.98 14.408C207.916 14.888 207.884 15.144 207.884 15.176C207.756 16.072 207.5 16.824 207.116 17.432C205.772 19.448 202.668 21.16 197.804 22.568C196.108 23.08 193.436 23.736 189.788 24.536C189.852 26.04 190.252 27.336 190.988 28.424C191.724 29.48 192.78 30.216 194.156 30.632C195.308 30.984 196.092 31.128 196.508 31.064C196.764 31.032 197.5 30.744 198.716 30.2C200.092 29.56 200.908 29.144 201.164 28.952C201.324 28.824 201.58 28.584 201.932 28.232L203.66 26.696C204.14 26.248 204.7 26.04 205.34 26.072C206.012 26.104 206.572 26.376 207.02 26.888C207.468 27.368 207.676 27.944 207.644 28.616C207.612 29.256 207.34 29.8 206.828 30.248L205.244 31.736C204.764 32.216 204.38 32.552 204.092 32.744C203.58 33.128 202.46 33.72 200.732 34.52C199.036 35.288 197.836 35.72 197.132 35.816C196.044 35.976 194.604 35.784 192.812 35.24C191.372 34.824 190.124 34.2 189.068 33.368C188.044 32.536 187.228 31.608 186.62 30.584C186.044 29.56 185.612 28.44 185.324 27.224C185.068 26.008 184.972 24.808 185.036 23.624C185.1 22.408 185.276 21.208 185.564 20.024C186.076 18.04 186.876 16.184 187.964 14.456C189.084 12.728 190.556 11.256 192.38 10.04C194.204 8.792 196.172 8.12 198.284 8.024C198.828 7.992 199.356 8.008 199.868 8.072C200.38 8.136 200.892 8.248 201.404 8.408C201.948 8.568 202.364 8.712 202.652 8.84C202.972 8.936 203.388 9.112 203.9 9.368C204.444 9.592 204.78 9.736 204.908 9.8C205.516 10.056 205.948 10.488 206.204 11.096ZM203.084 14.216L201.884 13.688L200.876 13.304C200.684 13.208 200.428 13.112 200.108 13.016C199.82 12.92 199.548 12.872 199.292 12.872C199.036 12.84 198.764 12.824 198.476 12.824C196.908 12.888 195.42 13.528 194.012 14.744C192.636 15.96 191.564 17.512 190.796 19.4C193.036 18.92 194.924 18.44 196.46 17.96C200.204 16.872 202.412 15.8 203.084 14.744L203.132 14.456C203.164 14.392 203.18 14.328 203.18 14.264C203.148 14.264 203.116 14.248 203.084 14.216ZM228.753 16.28C228.273 15.896 227.649 15.352 226.881 14.648C226.433 14.264 226.161 14.024 226.065 13.928C225.777 13.768 224.961 13.656 223.617 13.592C221.793 13.496 220.209 14.152 218.865 15.56C217.553 16.936 216.705 18.792 216.321 21.128C215.937 23.432 216.145 25.48 216.945 27.272C217.745 29.032 218.961 30.152 220.593 30.632C221.681 30.952 222.657 31.064 223.521 30.968C224.417 30.872 225.329 30.52 226.257 29.912C226.513 29.752 226.721 29.592 226.881 29.432C227.073 29.24 227.265 28.984 227.457 28.664C227.649 28.344 227.793 28.088 227.889 27.896C227.985 27.672 228.161 27.288 228.417 26.744L228.945 25.4C229.233 24.824 229.681 24.424 230.289 24.2C230.929 23.944 231.537 23.96 232.113 24.248C232.721 24.504 233.137 24.952 233.361 25.592C233.617 26.2 233.617 26.808 233.361 27.416C233.297 27.512 233.137 27.88 232.881 28.52C232.625 29.128 232.401 29.608 232.209 29.96C232.049 30.28 231.793 30.728 231.441 31.304C231.121 31.848 230.737 32.344 230.289 32.792C229.873 33.208 229.393 33.592 228.849 33.944C225.937 35.832 222.737 36.264 219.249 35.24C217.937 34.856 216.769 34.264 215.745 33.464C214.753 32.664 213.953 31.768 213.345 30.776C212.769 29.752 212.289 28.648 211.905 27.464C211.553 26.248 211.377 25.048 211.377 23.864C211.377 22.68 211.457 21.512 211.617 20.36C211.841 18.856 212.273 17.432 212.913 16.088C213.553 14.712 214.369 13.448 215.361 12.296C216.353 11.144 217.585 10.248 219.057 9.608C220.529 8.968 222.145 8.696 223.905 8.792C226.049 8.92 227.617 9.272 228.609 9.848C228.993 10.104 229.489 10.52 230.097 11.096L231.825 12.632C232.337 13.048 232.625 13.592 232.689 14.264C232.753 14.904 232.561 15.48 232.113 15.992C231.697 16.504 231.153 16.792 230.481 16.856C229.841 16.92 229.265 16.728 228.753 16.28ZM238.414 13.544H237.982C237.342 13.48 236.814 13.208 236.398 12.728C235.95 12.216 235.758 11.64 235.822 11C235.854 10.328 236.11 9.784 236.59 9.368C237.102 8.92 237.694 8.712 238.366 8.744C238.462 8.744 238.574 8.76 238.702 8.792C238.862 6.68 239.07 4.536 239.326 2.36C239.422 1.688 239.726 1.16 240.238 0.775997C240.75 0.359999 241.342 0.199999 242.014 0.295998C242.686 0.359999 243.214 0.647999 243.598 1.16C244.014 1.672 244.19 2.264 244.126 2.936C243.87 4.952 243.662 6.936 243.502 8.888C244.782 8.856 246.158 8.776 247.63 8.648C248.302 8.616 248.878 8.808 249.358 9.224C249.87 9.64 250.142 10.184 250.174 10.856C250.238 11.528 250.062 12.12 249.646 12.632C249.23 13.112 248.686 13.384 248.014 13.448C246.318 13.576 244.718 13.656 243.214 13.688C243.022 18.296 243.086 22.648 243.406 26.744C243.534 28.44 243.71 29.624 243.934 30.296C244.126 30.84 244.318 31.144 244.51 31.208C244.574 31.176 244.622 31.144 244.654 31.112C245.614 30.376 246.126 29.976 246.19 29.912C246.766 29.592 247.374 29.512 248.014 29.672C248.654 29.8 249.134 30.152 249.454 30.728C249.806 31.304 249.902 31.912 249.742 32.552C249.614 33.192 249.262 33.688 248.686 34.04C248.59 34.072 248.51 34.12 248.446 34.184C248.382 34.248 248.286 34.328 248.158 34.424L247.63 34.856C246.702 35.592 245.758 35.976 244.798 36.008C243.358 36.04 242.206 35.656 241.342 34.856C240.478 34.024 239.838 33.032 239.422 31.88C239.07 30.824 238.798 29.24 238.606 27.128C238.254 22.904 238.19 18.376 238.414 13.544Z" fill="white"/>
</svg>
